# xmcd CD database file
#
# Track frame offsets:
#	150
#	29907
#	50652
#	73645
#	97130
#	124367
#	146300
#	169862
#	190915
#	215872
#
# Disc length: 3233 seconds
#
# Revision: 0
# Processed by: cddbd v1.5.1PL0 Copyright (c) Steve Scherf et al.
# Submitted via: CDex 1.51
#
DISCID=a50c9f0a
DTITLE=やしきたかじん - やしきたかじん／JINX
DYEAR=96
DGENRE=New Age
TTITLE0=シエスタ
TTITLE1=JINX
TTITLE2=思い出よりこの瞬間
TTITLE3=悪党
TTITLE4=もしも夢がかなうならば
TTITLE5=TWILIGHT CITY
TTITLE6=いつか笑える
TTITLE7=星に祈ろう
TTITLE8=嘘を置き去りにして
TTITLE9=男に生まれてきたかった
EXTD=YEAR: 96
EXTT0=
EXTT1=
EXTT2=
EXTT3=
EXTT4=
EXTT5=
EXTT6=
EXTT7=
EXTT8=
EXTT9=
PLAYORDER=
